<?xml version="1.0" encoding="iso-8859-1"?>
<!-- Uploaded to: SVG Repo, www.svgrepo.com, Generator: SVG Repo Mixer Tools -->
<svg height="800px" width="800px" version="1.1" id="Layer_1" xmlns="http://www.w3.org/2000/svg" xmlns:xlink="http://www.w3.org/1999/xlink" 
	 viewBox="0 0 512 512" xml:space="preserve">
<path style="fill:#B4E66E;" d="M418.472,367.164H25.119c-9.446,0-17.102-7.656-17.102-17.102V93.528
	c0-9.446,7.656-17.102,17.102-17.102h393.353c9.446,0,17.102,7.656,17.102,17.102v256.534
	C435.574,359.508,427.918,367.164,418.472,367.164z"/>
<path style="fill:#A0D755;" d="M401.37,204.693c-70.84,0-128.267,57.427-128.267,128.267c0,11.865,1.739,23.3,4.754,34.205h140.615
	c9.445,0,17.102-7.658,17.102-17.102V209.447C424.669,206.432,413.234,204.693,401.37,204.693z"/>
<path style="fill:#FFC850;" d="M136.284,204.693H67.875c-4.722,0-8.551-3.829-8.551-8.551v-51.307c0-4.722,3.829-8.551,8.551-8.551
	h68.409c4.722,0,8.551,3.829,8.551,8.551v51.307C144.835,200.864,141.006,204.693,136.284,204.693z"/>
<circle style="fill:#FF507D;" cx="294.48" cy="166.212" r="38.48"/>
<circle style="fill:#FFC850;" cx="345.787" cy="166.212" r="38.48"/>
<path style="fill:#FF8C66;" d="M307.307,166.212c0,11.352,5.008,21.451,12.827,28.493c7.819-7.043,12.827-17.142,12.827-28.493
	c0-11.352-5.008-21.451-12.827-28.493C312.315,144.762,307.307,154.861,307.307,166.212z"/>
<circle style="fill:#FFFFFF;" cx="401.37" cy="332.96" r="102.614"/>
<path d="M273.102,359.148H25.119c-5.01,0-9.086-4.076-9.086-9.086V93.528c0-5.01,4.076-9.086,9.086-9.086h393.353
	c5.01,0,9.086,4.076,9.086,9.086v111.167c0,4.427,3.589,8.017,8.017,8.017c4.427,0,8.017-3.589,8.017-8.017V93.528
	c0-13.851-11.268-25.119-25.119-25.119H25.119C11.268,68.409,0,79.677,0,93.528v256.534c0,13.851,11.268,25.119,25.119,25.119
	h247.983c4.427,0,8.017-3.589,8.017-8.017C281.119,362.737,277.53,359.148,273.102,359.148z"/>
<path d="M401.37,222.329c-22.525,0-44.124,6.74-62.382,19.243l2.014-6.31c1.346-4.218-0.982-8.729-5.2-10.074
	c-4.216-1.348-8.729,0.982-10.074,5.2l-10.51,32.937c-0.822,2.574-0.291,5.388,1.411,7.487c1.531,1.888,3.823,2.966,6.225,2.966
	c0.268,0,0.539-0.014,0.809-0.041l34.397-3.488c4.405-0.447,7.614-4.38,7.168-8.784c-0.447-4.405-4.38-7.606-8.784-7.168
	l-8.94,0.906c15.724-10.926,34.384-16.841,53.867-16.841c52.161,0,94.597,42.436,94.597,94.597
	c0,51.636-41.587,93.734-93.027,94.577c0.001-0.006,0.002-0.013,0.004-0.019c-1.782,0.033-3.563,0.035-5.333-0.033
	c-4.408-0.177-8.15,3.274-8.323,7.698c-0.173,4.424,3.274,8.15,7.698,8.323c1.452,0.057,2.927,0.085,4.384,0.085
	c61.002,0,110.63-49.629,110.63-110.63S462.371,222.329,401.37,222.329z"/>
<path d="M67.875,212.709h68.409c9.136,0,16.568-7.432,16.568-16.568v-51.307c0-9.136-7.432-16.568-16.568-16.568H67.875
	c-9.136,0-16.568,7.432-16.568,16.568v51.307C51.307,205.277,58.739,212.709,67.875,212.709z M136.818,144.835v51.307
	c0,0.295-0.239,0.534-0.534,0.534h-34.739v-18.171h9.086c4.427,0,8.017-3.589,8.017-8.017c0-4.427-3.589-8.017-8.017-8.017h-9.086
	V144.3h34.739C136.579,144.3,136.818,144.54,136.818,144.835z M67.34,144.835c0-0.295,0.239-0.534,0.534-0.534h17.637v52.376H67.875
	c-0.295,0-0.534-0.239-0.534-0.534V144.835z"/>
<path d="M345.787,212.709c25.638,0,46.497-20.858,46.497-46.497s-20.858-46.497-46.497-46.497c-9.467,0-18.278,2.851-25.632,7.729
	c-7.571-5.017-16.488-7.729-25.675-7.729c-25.638,0-46.497,20.858-46.497,46.497s20.858,46.497,46.497,46.497
	c9.47,0,18.284-2.853,25.641-7.734C327.693,209.988,336.62,212.709,345.787,212.709z M376.251,166.212
	c0,16.798-13.666,30.463-30.463,30.463c-4.773,0-9.444-1.129-13.651-3.237c5.554-7.66,8.841-17.064,8.841-27.227
	c0-4.427-3.589-8.017-8.017-8.017c-4.427,0-8.017,3.589-8.017,8.017c0,6.037-1.772,11.666-4.814,16.404
	c-3.102-4.848-4.806-10.52-4.806-16.404c0-16.798,13.666-30.463,30.463-30.463C362.585,135.749,376.251,149.415,376.251,166.212z
	 M264.017,166.212c0-16.798,13.666-30.463,30.463-30.463c4.781,0,9.448,1.127,13.652,3.234c-5.555,7.66-8.842,17.065-8.842,27.229
	c0,9.885,3.145,19.378,8.824,27.23c-4.106,2.064-8.734,3.233-13.634,3.233C277.683,196.676,264.017,183.01,264.017,166.212z"/>
<path d="M59.324,272.567h68.409c4.427,0,8.017-3.589,8.017-8.017c0-4.427-3.589-8.017-8.017-8.017H59.324
	c-4.427,0-8.017,3.589-8.017,8.017C51.307,268.978,54.896,272.567,59.324,272.567z"/>
<path d="M59.324,323.874h205.228c4.427,0,8.017-3.589,8.017-8.017c0-4.427-3.589-8.017-8.017-8.017H59.324
	c-4.427,0-8.017,3.589-8.017,8.017C51.307,320.285,54.896,323.874,59.324,323.874z"/>
<path d="M230.347,272.567c4.427,0,8.017-3.589,8.017-8.017c0-4.427-3.589-8.017-8.017-8.017h-68.409
	c-4.427,0-8.017,3.589-8.017,8.017c0,4.427,3.589,8.017,8.017,8.017H230.347z"/>
<path d="M281.653,256.534h-17.102c-4.427,0-8.017,3.589-8.017,8.017c0,4.427,3.589,8.017,8.017,8.017h17.102
	c4.427,0,8.017-3.589,8.017-8.017C289.67,260.123,286.081,256.534,281.653,256.534z"/>
<path d="M299.519,289.7c-2.321,5.458-4.213,11.147-5.621,16.91c-1.051,4.3,1.583,8.64,5.884,9.691
	c0.639,0.156,1.279,0.231,1.91,0.231c3.609,0,6.886-2.453,7.782-6.115c1.203-4.921,2.818-9.78,4.8-14.442
	c1.733-4.075-0.166-8.782-4.24-10.515C305.959,283.727,301.252,285.626,299.519,289.7z"/>
<path d="M309.522,355.698c-1.21-4.907-2.03-9.96-2.438-15.019c-0.356-4.412-4.215-7.7-8.635-7.346
	c-4.413,0.356-7.702,4.221-7.346,8.635c0.477,5.916,1.437,11.827,2.853,17.57c0.901,3.655,4.175,6.099,7.777,6.099
	c0.635,0,1.282-0.076,1.926-0.235C307.956,364.341,310.581,359.997,309.522,355.698z"/>
<path d="M367.876,421.459c-4.732-1.791-9.359-3.987-13.751-6.525c-3.834-2.214-8.737-0.902-10.952,2.932
	c-2.215,3.834-0.901,8.737,2.932,10.952c5.14,2.968,10.555,5.538,16.094,7.635c0.935,0.354,1.893,0.522,2.837,0.522
	c3.237,0,6.285-1.974,7.499-5.18C374.102,427.654,372.017,423.027,367.876,421.459z"/>
<path d="M321.443,383.585c-2.373-3.739-7.326-4.844-11.065-2.471c-3.738,2.373-4.844,7.327-2.471,11.065
	c3.172,4.997,6.776,9.777,10.71,14.208c1.584,1.784,3.786,2.695,5.998,2.695c1.893,0,3.792-0.667,5.32-2.022
	c3.311-2.939,3.612-8.007,0.672-11.317C327.241,391.95,324.158,387.86,321.443,383.585z"/>
<path d="M375.182,357.01c0-4.427-3.589-8.017-8.017-8.017c-4.427,0-8.017,3.589-8.017,8.017c0,13.489,14.236,24.034,34.205,26.274
	v0.982c0,4.427,3.589,8.017,8.017,8.017c4.427,0,8.017-3.589,8.017-8.017v-0.982c19.969-2.24,34.205-12.786,34.205-26.274
	c0-18.805-18.787-25.929-34.205-30.21v-27.974c11.431,1.758,18.171,6.984,18.171,10.084c0,4.427,3.589,8.017,8.017,8.017
	c4.427,0,8.017-3.589,8.017-8.017c0-13.489-14.236-24.034-34.205-26.274v-0.982c0-4.427-3.589-8.017-8.017-8.017
	c-4.427,0-8.017,3.589-8.017,8.017v0.982c-19.969,2.24-34.205,12.786-34.205,26.274c0,18.805,18.787,25.929,34.205,30.21v27.974
	C381.922,365.336,375.182,360.11,375.182,357.01z M427.557,357.01c0,3.1-6.74,8.326-18.171,10.084v-23.531
	C422.758,347.768,427.557,351.521,427.557,357.01z M375.182,308.91c0-3.1,6.74-8.326,18.171-10.084v23.531
	C379.981,318.151,375.182,314.398,375.182,308.91z"/>
</svg>