<svg width="64" height="64" viewBox="0 0 64 64" fill="none" xmlns="http://www.w3.org/2000/svg">
<path d="M36.38 3.00001C35.1967 3.00103 34.0614 3.46807 33.22 4.30001C32.3922 5.12795 31.925 6.24929 31.92 7.42001V29.69C31.917 30.3419 31.6585 30.9666 31.2 31.43C30.9726 31.6607 30.7017 31.8439 30.4031 31.9692C30.1044 32.0945 29.7838 32.1594 29.46 32.16C29.1947 32.16 28.9404 32.2654 28.7529 32.4529C28.5653 32.6404 28.46 32.8948 28.46 33.16C28.46 33.4252 28.5653 33.6796 28.7529 33.8671C28.9404 34.0547 29.1947 34.16 29.46 34.16H39.86C40.1252 34.16 40.3795 34.0547 40.5671 33.8671C40.7546 33.6796 40.86 33.4252 40.86 33.16V7.46001C40.8587 6.873 40.7417 6.292 40.5159 5.75018C40.29 5.20835 39.9597 4.71632 39.5437 4.30217C39.1277 3.88802 38.6341 3.55986 38.0913 3.33644C37.5485 3.11302 36.967 2.9987 36.38 3.00001Z" fill="#DBD8DD" id="id_101"></path>
<path d="M56.5399 3H36.3799C36.1147 3 35.8603 3.10536 35.6728 3.29289C35.4852 3.48043 35.3799 3.73478 35.3799 4C35.3799 4.26522 35.4852 4.51957 35.6728 4.70711C35.8603 4.89464 36.1147 5 36.3799 5C37.0332 4.99999 37.66 5.25885 38.1229 5.71991C38.5858 6.18096 38.8472 6.80665 38.8499 7.46V36.81C38.8499 36.81 38.8499 36.81 38.8499 36.88C38.8451 36.9599 38.8451 37.0401 38.8499 37.12C38.869 37.1718 38.8924 37.222 38.9199 37.27C38.9199 37.27 38.9199 37.34 38.9199 37.38L40.5999 39.79C40.6918 39.9225 40.8143 40.0307 40.9571 40.1056C41.0999 40.1805 41.2587 40.2197 41.4199 40.22C41.5811 40.2197 41.7399 40.1805 41.8826 40.1056C42.0254 40.0307 42.148 39.9225 42.2399 39.79L43.0999 38.56L43.9599 39.79C44.0518 39.9225 44.1743 40.0307 44.3171 40.1056C44.4599 40.1805 44.6187 40.2197 44.7799 40.22C44.9411 40.2197 45.0999 40.1805 45.2426 40.1056C45.3854 40.0307 45.508 39.9225 45.5999 39.79L46.4599 38.56L47.3199 39.79C47.412 39.922 47.5347 40.0299 47.6775 40.1043C47.8202 40.1788 47.9789 40.2176 48.1399 40.2176C48.3009 40.2176 48.4595 40.1788 48.6023 40.1043C48.7451 40.0299 48.8677 39.922 48.9599 39.79L49.8199 38.56L50.6699 39.79C50.7617 39.9241 50.8848 40.0337 51.0286 40.1095C51.1723 40.1853 51.3324 40.2249 51.4949 40.2249C51.6574 40.2249 51.8174 40.1853 51.9612 40.1095C52.1049 40.0337 52.228 39.9241 52.3199 39.79L53.1699 38.56L54.0299 39.79C54.1217 39.9241 54.2448 40.0337 54.3886 40.1095C54.5323 40.1853 54.6924 40.2249 54.8549 40.2249C55.0174 40.2249 55.1774 40.1853 55.3212 40.1095C55.4649 40.0337 55.588 39.9241 55.6799 39.79L56.5299 38.56L57.3999 39.8C57.4929 39.9306 57.6159 40.037 57.7586 40.1101C57.9013 40.1832 58.0595 40.2209 58.2199 40.22C58.3802 40.2209 58.5384 40.1832 58.6811 40.1101C58.8238 40.037 58.9469 39.9306 59.0399 39.8L60.7199 37.38C60.7199 37.38 60.7199 37.31 60.7199 37.29C60.7525 37.2294 60.7793 37.1657 60.7999 37.1C60.8055 37.0335 60.8055 36.9665 60.7999 36.9C60.7999 36.9 60.7999 36.84 60.7999 36.81V7.46C60.801 6.31098 60.3587 5.20585 59.5651 4.37496C58.7714 3.54407 57.6877 3.05152 56.5399 3V3Z" fill="#EEEFEE" id="id_102"></path>
<path d="M33.9101 21C33.9101 20.7348 33.8048 20.4804 33.6172 20.2929C33.4297 20.1054 33.1753 20 32.9101 20H26.0001C25.7349 20 25.4805 20.1054 25.293 20.2929C25.1055 20.4804 25.0001 20.7348 25.0001 21V29.68C24.9715 30.2841 25.0658 30.8878 25.2773 31.4544C25.4888 32.021 25.8131 32.5388 26.2305 32.9765C26.6479 33.4142 27.1498 33.7625 27.7058 34.0006C28.2618 34.2386 28.8603 34.3614 29.4651 34.3614C30.0699 34.3614 30.6684 34.2386 31.2244 34.0006C31.7804 33.7625 32.2823 33.4142 32.6998 32.9765C33.1172 32.5388 33.4415 32.021 33.6529 31.4544C33.8644 30.8878 33.9587 30.2841 33.9301 29.68V21H33.9101Z" fill="#EEEFEE" id="id_103"></path>
<path d="M49.4001 14.65H50.4001C50.4421 14.6473 50.4843 14.6529 50.5241 14.6665C50.564 14.6802 50.6008 14.7015 50.6324 14.7294C50.664 14.7573 50.6897 14.7911 50.7082 14.829C50.7267 14.8668 50.7375 14.9079 50.7401 14.95C50.7401 15.0245 50.7114 15.0961 50.6601 15.15C50.5882 15.2134 50.4959 15.2489 50.4001 15.25H48.4001C48.1348 15.25 47.8805 15.3554 47.693 15.5429C47.5054 15.7304 47.4001 15.9848 47.4001 16.25C47.4001 16.5152 47.5054 16.7696 47.693 16.9571C47.8805 17.1446 48.1348 17.25 48.4001 17.25H48.8501V17.74C48.8501 18.0052 48.9554 18.2596 49.143 18.4471C49.3305 18.6346 49.5848 18.74 49.8501 18.74C50.1153 18.74 50.3696 18.6346 50.5572 18.4471C50.7447 18.2596 50.8501 18.0052 50.8501 17.74V17.2C51.2892 17.1095 51.6944 16.8982 52.0201 16.59C52.348 16.2677 52.5718 15.8545 52.6625 15.4037C52.7533 14.953 52.7069 14.4854 52.5293 14.0613C52.3517 13.6371 52.051 13.276 51.6661 13.0244C51.2813 12.7729 50.8298 12.6425 50.3701 12.65H49.3701C49.2858 12.6529 49.2036 12.6234 49.1404 12.5676C49.0772 12.5118 49.0377 12.434 49.0301 12.35C49.0349 12.2717 49.0667 12.1975 49.1201 12.14C49.1879 12.0764 49.2771 12.0407 49.3701 12.04H51.3701C51.6353 12.04 51.8896 11.9346 52.0772 11.7471C52.2647 11.5596 52.3701 11.3052 52.3701 11.04C52.3701 10.7748 52.2647 10.5204 52.0772 10.3329C51.8896 10.1454 51.6353 10.04 51.3701 10.04H50.9201V9.56C50.9201 9.29478 50.8147 9.04043 50.6272 8.85289C50.4396 8.66535 50.1853 8.56 49.9201 8.56C49.6548 8.56 49.4005 8.66535 49.213 8.85289C49.0254 9.04043 48.9201 9.29478 48.9201 9.56V10.1C48.48 10.1795 48.075 10.3925 47.7601 10.71C47.5383 10.9216 47.3618 11.1761 47.2415 11.458C47.1211 11.74 47.0594 12.0435 47.0601 12.35C47.068 12.9645 47.3183 13.5509 47.7566 13.9817C48.1948 14.4125 48.7855 14.6527 49.4001 14.65V14.65Z" fill="#1976D2" id="id_104"></path>
<path d="M49.92 20.83C51.3429 20.832 52.7344 20.4117 53.9183 19.6224C55.1022 18.8332 56.0253 17.7103 56.5708 16.3961C57.1162 15.0819 57.2594 13.6354 56.9823 12.2398C56.7052 10.8441 56.0202 9.56206 55.0141 8.55592C54.0079 7.54978 52.7259 6.86479 51.3302 6.58768C49.9346 6.31057 48.4881 6.4538 47.1739 6.99924C45.8597 7.54467 44.7368 8.46778 43.9476 9.6517C43.1583 10.8356 42.738 12.2271 42.74 13.65C42.7426 15.5535 43.5 17.3782 44.8459 18.7241C46.1918 20.0701 48.0166 20.8274 49.92 20.83V20.83ZM49.92 8.46001C50.9469 8.45803 51.9513 8.76074 52.8061 9.32982C53.6609 9.8989 54.3277 10.7088 54.7221 11.6569C55.1164 12.6051 55.2206 13.649 55.0215 14.6564C54.8224 15.6638 54.3289 16.5895 53.6034 17.3163C52.878 18.0432 51.9532 18.5385 50.9462 18.7395C49.9392 18.9406 48.8951 18.8384 47.9462 18.4459C46.9973 18.0534 46.1861 17.3882 45.6154 16.5345C45.0446 15.6807 44.74 14.6769 44.74 13.65C44.74 12.2753 45.2854 10.9567 46.2566 9.98365C47.2277 9.01063 48.5453 8.46266 49.92 8.46001V8.46001Z" fill="#1976D2" id="id_105"></path>
<path d="M43 25.08H49.29C49.5552 25.08 49.8096 24.9747 49.9971 24.7871C50.1846 24.5996 50.29 24.3452 50.29 24.08C50.29 23.8148 50.1846 23.5604 49.9971 23.3729C49.8096 23.1854 49.5552 23.08 49.29 23.08H43C42.7348 23.08 42.4804 23.1854 42.2929 23.3729C42.1054 23.5604 42 23.8148 42 24.08C42 24.3452 42.1054 24.5996 42.2929 24.7871C42.4804 24.9747 42.7348 25.08 43 25.08Z" fill="#1976D2" id="id_106"></path>
<path d="M55.57 26.08H43C42.7348 26.08 42.4804 26.1854 42.2929 26.3729C42.1054 26.5604 42 26.8148 42 27.08C42 27.3452 42.1054 27.5996 42.2929 27.7871C42.4804 27.9747 42.7348 28.08 43 28.08H55.57C55.8352 28.08 56.0896 27.9747 56.2771 27.7871C56.4646 27.5996 56.57 27.3452 56.57 27.08C56.57 26.8148 56.4646 26.5604 56.2771 26.3729C56.0896 26.1854 55.8352 26.08 55.57 26.08Z" fill="#1976D2" id="id_107"></path>
<path d="M55.57 29.08H43C42.7348 29.08 42.4804 29.1854 42.2929 29.3729C42.1054 29.5604 42 29.8148 42 30.08C42 30.3452 42.1054 30.5996 42.2929 30.7871C42.4804 30.9747 42.7348 31.08 43 31.08H55.57C55.8352 31.08 56.0896 30.9747 56.2771 30.7871C56.4646 30.5996 56.57 30.3452 56.57 30.08C56.57 29.8148 56.4646 29.5604 56.2771 29.3729C56.0896 29.1854 55.8352 29.08 55.57 29.08Z" fill="#1976D2" id="id_108"></path>
<path d="M55.57 32.07H43C42.7348 32.07 42.4804 32.1754 42.2929 32.3629C42.1054 32.5504 42 32.8048 42 33.07C42 33.3352 42.1054 33.5896 42.2929 33.7771C42.4804 33.9647 42.7348 34.07 43 34.07H55.57C55.8352 34.07 56.0896 33.9647 56.2771 33.7771C56.4646 33.5896 56.57 33.3352 56.57 33.07C56.57 32.8048 56.4646 32.5504 56.2771 32.3629C56.0896 32.1754 55.8352 32.07 55.57 32.07Z" fill="#1976D2" id="id_109"></path>
<path d="M60.6701 45.07C60.4516 44.5212 60.126 44.0214 59.7123 43.5997C59.2986 43.178 58.8052 42.8429 58.2606 42.6139C57.7161 42.3849 57.1314 42.2667 56.5407 42.266C55.95 42.2653 55.3651 42.3823 54.8201 42.61L42.0901 47.09C42.1337 46.8389 42.1571 46.5848 42.1601 46.33C42.1601 45.1949 41.7091 44.1062 40.9065 43.3036C40.1038 42.5009 39.0152 42.05 37.8801 42.05H34.5801C31.6487 42.0597 28.7589 41.3562 26.1601 40C23.279 38.4764 20.0692 37.6799 16.8101 37.68H10.8101C10.5448 37.68 10.2905 37.7853 10.103 37.9729C9.91541 38.1604 9.81006 38.4148 9.81006 38.68V55.29C9.81006 55.5552 9.91541 55.8096 10.103 55.9971C10.2905 56.1846 10.5448 56.29 10.8101 56.29C12.9456 56.2891 15.0657 56.6509 17.0801 57.36L22.2201 59.17C24.8529 60.1046 27.6263 60.5815 30.4201 60.58H31.4201C34.4139 60.4445 37.3582 59.7669 40.1101 58.58L58.5401 50.7C59.5357 50.1988 60.307 49.3423 60.7014 48.2998C61.0958 47.2572 61.0846 46.1047 60.6701 45.07V45.07Z" fill="#e3d3dd" id="id_110"></path>
<path d="M10.81 33.09H4C3.44772 33.09 3 33.5377 3 34.09V58.59C3 59.1423 3.44772 59.59 4 59.59H10.81C11.3623 59.59 11.81 59.1423 11.81 58.59V34.09C11.81 33.5377 11.3623 33.09 10.81 33.09Z" fill="#40596B" id="id_111"></path>
<path d="M29.45 34.16H38.85V36.81C38.8727 37.0085 38.9303 37.2015 39.02 37.38L40.7 39.79C40.7919 39.9225 40.9145 40.0307 41.0572 40.1056C41.2 40.1805 41.3588 40.2197 41.52 40.22C41.6812 40.2197 41.84 40.1805 41.9828 40.1056C42.1255 40.0307 42.2481 39.9225 42.34 39.79L43.2 38.56L44.06 39.79C44.1519 39.9225 44.2745 40.0307 44.4172 40.1056C44.56 40.1805 44.7188 40.2197 44.88 40.22C45.0412 40.2197 45.2 40.1805 45.3428 40.1056C45.4855 40.0307 45.6081 39.9225 45.7 39.79L46.56 38.56L47.42 39.79C47.5122 39.922 47.6348 40.0299 47.7776 40.1043C47.9204 40.1788 48.079 40.2176 48.24 40.2176C48.401 40.2176 48.5596 40.1788 48.7024 40.1043C48.8452 40.0299 48.9678 39.922 49.06 39.79L49.92 38.56L50.77 39.79C50.8618 39.9241 50.985 40.0337 51.1287 40.1095C51.2725 40.1853 51.4325 40.2249 51.595 40.2249C51.7575 40.2249 51.9175 40.1853 52.0613 40.1095C52.205 40.0337 52.3282 39.9241 52.42 39.79L53.27 38.56L54.13 39.79C54.2218 39.9241 54.345 40.0337 54.4887 40.1095C54.6325 40.1853 54.7925 40.2249 54.955 40.2249C55.1175 40.2249 55.2775 40.1853 55.4213 40.1095C55.565 40.0337 55.6882 39.9241 55.78 39.79L56.63 38.56L57.5 39.8C57.593 39.9306 57.716 40.037 57.8587 40.1101C58.0015 40.1832 58.1597 40.2209 58.32 40.22C58.4803 40.2209 58.6385 40.1832 58.7812 40.1101C58.924 40.037 59.047 39.9306 59.14 39.8L60.82 37.38C60.9187 37.2044 60.98 37.0104 61 36.81V7.46C61 6.27713 60.5301 5.14272 59.6937 4.3063C58.8573 3.46989 57.7229 3 56.54 3H36.38C35.1971 3 34.0627 3.46989 33.2263 4.3063C32.3899 5.14272 31.92 6.27713 31.92 7.46V7.46V20H26C25.7348 20 25.4804 20.1054 25.2929 20.2929C25.1054 20.4804 25 20.7348 25 21V29.68C25 30.863 25.4679 31.998 26.3015 32.8373C27.1352 33.6766 28.267 34.1521 29.45 34.16V34.16ZM59 7.46V36.46L58.32 37.46L57.45 36.22C57.357 36.0894 57.234 35.983 57.0912 35.9099C56.9485 35.8368 56.7903 35.7991 56.63 35.8C56.4688 35.8003 56.31 35.8395 56.1672 35.9144C56.0245 35.9893 55.9019 36.0975 55.81 36.23L55 37.47L54.15 36.24C54.0582 36.1059 53.935 35.9963 53.7913 35.9205C53.6475 35.8447 53.4875 35.8051 53.325 35.8051C53.1625 35.8051 53.0025 35.8447 52.8587 35.9205C52.715 35.9963 52.5918 36.1059 52.5 36.24L51.64 37.47L50.79 36.24C50.6981 36.1075 50.5755 35.9992 50.4328 35.9244C50.29 35.8495 50.1312 35.8103 49.97 35.81C49.8088 35.8103 49.65 35.8495 49.5072 35.9244C49.3645 35.9992 49.2419 36.1075 49.15 36.24L48.29 37.47L47.43 36.24C47.3378 36.108 47.2152 36.0001 47.0724 35.9257C46.9296 35.8512 46.771 35.8124 46.61 35.8124C46.449 35.8124 46.2904 35.8512 46.1476 35.9257C46.0048 36.0001 45.8822 36.108 45.79 36.24L44.93 37.47L44 36.24C43.9081 36.1075 43.7855 35.9992 43.6428 35.9244C43.5 35.8495 43.3412 35.8103 43.18 35.81C43.0188 35.8103 42.86 35.8495 42.7172 35.9244C42.5745 35.9992 42.4519 36.1075 42.36 36.24L41.5 37.47L40.83 36.47V7.47C40.8361 6.59262 40.582 5.73312 40.1 5H56.54C57.1924 5 57.8181 5.25918 58.2795 5.72052C58.7408 6.18186 59 6.80757 59 7.46V7.46ZM34.64 5.72C34.9854 5.37719 35.4243 5.14403 35.9017 5.0498C36.3791 4.95557 36.8738 5.00446 37.3235 5.19033C37.7732 5.3762 38.158 5.69078 38.4296 6.09457C38.7012 6.49836 38.8474 6.97338 38.85 7.46V32.16H33.17C33.6545 31.4275 33.9119 30.5682 33.91 29.69V7.47C33.9087 7.14435 33.9727 6.82174 34.0981 6.52119C34.2234 6.22064 34.4077 5.94822 34.64 5.72V5.72ZM31.91 29.72C31.9315 30.0569 31.8836 30.3947 31.7695 30.7124C31.6553 31.0301 31.4772 31.321 31.2462 31.5672C31.0152 31.8134 30.7362 32.0096 30.4264 32.1437C30.1166 32.2779 29.7826 32.3471 29.445 32.3471C29.1074 32.3471 28.7734 32.2779 28.4636 32.1437C28.1538 32.0096 27.8748 31.8134 27.6438 31.5672C27.4128 31.321 27.2347 31.0301 27.1205 30.7124C27.0064 30.3947 26.9585 30.0569 26.98 29.72V22H31.91V29.72Z" fill="black" id="id_112"></path>
<path d="M50.4399 12.65H49.4399C49.3556 12.6529 49.2734 12.6234 49.2102 12.5676C49.147 12.5118 49.1075 12.434 49.0999 12.35C49.1048 12.2717 49.1366 12.1975 49.1899 12.14C49.2577 12.0764 49.347 12.0407 49.4399 12.04H51.4399C51.7051 12.04 51.9595 11.9346 52.147 11.7471C52.3345 11.5596 52.4399 11.3052 52.4399 11.04C52.4399 10.7748 52.3345 10.5204 52.147 10.3329C51.9595 10.1454 51.7051 10.04 51.4399 10.04H50.9899V9.56C50.9899 9.29478 50.8845 9.04043 50.697 8.85289C50.5095 8.66535 50.2551 8.56 49.9899 8.56C49.7247 8.56 49.4703 8.66535 49.2828 8.85289C49.0952 9.04043 48.9899 9.29478 48.9899 9.56V10.1C48.5498 10.1795 48.1448 10.3925 47.8299 10.71C47.6081 10.9216 47.4316 11.1761 47.3113 11.458C47.191 11.74 47.1292 12.0435 47.1299 12.35C47.1378 12.9645 47.3881 13.5509 47.8264 13.9817C48.2647 14.4125 48.8554 14.6527 49.4699 14.65H50.4699C50.5119 14.6473 50.5541 14.6529 50.594 14.6665C50.6338 14.6802 50.6706 14.7015 50.7022 14.7294C50.7338 14.7573 50.7596 14.7911 50.778 14.829C50.7965 14.8668 50.8073 14.9079 50.8099 14.95C50.8099 15.0245 50.7812 15.0961 50.7299 15.15C50.658 15.2134 50.5657 15.2489 50.4699 15.25H48.4699C48.2047 15.25 47.9503 15.3554 47.7628 15.5429C47.5752 15.7304 47.4699 15.9848 47.4699 16.25C47.4699 16.5152 47.5752 16.7696 47.7628 16.9571C47.9503 17.1446 48.2047 17.25 48.4699 17.25H48.9199V17.74C48.9199 18.0052 49.0252 18.2596 49.2128 18.4471C49.4003 18.6346 49.6547 18.74 49.9199 18.74C50.1851 18.74 50.4395 18.6346 50.627 18.4471C50.8145 18.2596 50.9199 18.0052 50.9199 17.74V17.2C51.359 17.1095 51.7642 16.8982 52.0899 16.59C52.4178 16.2677 52.6416 15.8545 52.7324 15.4037C52.8231 14.953 52.7767 14.4854 52.5991 14.0613C52.4215 13.6371 52.1208 13.276 51.736 13.0244C51.3511 12.7729 50.8996 12.6425 50.4399 12.65V12.65Z" fill="black" id="id_113"></path>
<path d="M49.92 6.46003C48.4975 6.45805 47.1064 6.87805 45.9227 7.6669C44.739 8.45574 43.8159 9.57797 43.2702 10.8916C42.7244 12.2052 42.5806 13.6512 42.8569 15.0466C43.1332 16.442 43.8172 17.724 44.8223 18.7306C45.8275 19.7371 47.1086 20.4229 48.5036 20.7011C49.8986 20.9794 51.3448 20.8376 52.6592 20.2937C53.9735 19.7498 55.0971 18.8282 55.8875 17.6456C56.678 16.463 57.1 15.0725 57.1 13.65C57.0973 11.7457 56.3403 9.9199 54.9947 8.57238C53.649 7.22485 51.8243 6.46532 49.92 6.46003V6.46003ZM49.92 18.83C48.8926 18.832 47.8878 18.529 47.0328 17.9595C46.1778 17.39 45.511 16.5795 45.117 15.6308C44.7229 14.682 44.6193 13.6377 44.8192 12.63C45.0192 11.6223 45.5137 10.6966 46.2401 9.97015C46.9665 9.24372 47.8922 8.74921 48.8999 8.54928C49.9076 8.34934 50.952 8.45296 51.9007 8.84702C52.8495 9.24108 53.6599 9.90784 54.2295 10.7629C54.799 11.6179 55.1019 12.6227 55.1 13.65C55.0973 15.023 54.5507 16.3391 53.5799 17.3099C52.609 18.2808 51.293 18.8274 49.92 18.83V18.83Z" fill="black" id="id_114"></path>
<path d="M43 25.08H49.29C49.5552 25.08 49.8096 24.9747 49.9971 24.7871C50.1846 24.5996 50.29 24.3452 50.29 24.08C50.29 23.8148 50.1846 23.5604 49.9971 23.3729C49.8096 23.1854 49.5552 23.08 49.29 23.08H43C42.7348 23.08 42.4804 23.1854 42.2929 23.3729C42.1054 23.5604 42 23.8148 42 24.08C42 24.3452 42.1054 24.5996 42.2929 24.7871C42.4804 24.9747 42.7348 25.08 43 25.08Z" fill="black" id="id_115"></path>
<path d="M55.57 26.08H43C42.7348 26.08 42.4804 26.1854 42.2929 26.3729C42.1054 26.5604 42 26.8148 42 27.08C42 27.3452 42.1054 27.5996 42.2929 27.7871C42.4804 27.9747 42.7348 28.08 43 28.08H55.57C55.8352 28.08 56.0896 27.9747 56.2771 27.7871C56.4646 27.5996 56.57 27.3452 56.57 27.08C56.57 26.8148 56.4646 26.5604 56.2771 26.3729C56.0896 26.1854 55.8352 26.08 55.57 26.08Z" fill="black" id="id_116"></path>
<path d="M55.57 29.08H43C42.7348 29.08 42.4804 29.1854 42.2929 29.3729C42.1054 29.5604 42 29.8148 42 30.08C42 30.3452 42.1054 30.5996 42.2929 30.7871C42.4804 30.9747 42.7348 31.08 43 31.08H55.57C55.8352 31.08 56.0896 30.9747 56.2771 30.7871C56.4646 30.5996 56.57 30.3452 56.57 30.08C56.57 29.8148 56.4646 29.5604 56.2771 29.3729C56.0896 29.1854 55.8352 29.08 55.57 29.08Z" fill="black" id="id_117"></path>
<path d="M55.57 32.07H43C42.7348 32.07 42.4804 32.1754 42.2929 32.3629C42.1054 32.5504 42 32.8048 42 33.07C42 33.3352 42.1054 33.5896 42.2929 33.7771C42.4804 33.9647 42.7348 34.07 43 34.07H55.57C55.8352 34.07 56.0896 33.9647 56.2771 33.7771C56.4646 33.5896 56.57 33.3352 56.57 33.07C56.57 32.8048 56.4646 32.5504 56.2771 32.3629C56.0896 32.1754 55.8352 32.07 55.57 32.07Z" fill="black" id="id_118"></path>
<path d="M60.67 45.07C60.4515 44.5212 60.1259 44.0214 59.7123 43.5997C59.2986 43.178 58.8051 42.8429 58.2606 42.614C57.7161 42.385 57.1314 42.2667 56.5407 42.266C55.95 42.2654 55.365 42.3823 54.82 42.61L42.09 47.09C42.1336 46.839 42.157 46.5848 42.16 46.33C42.16 45.1949 41.7091 44.1063 40.9064 43.3036C40.1038 42.501 39.0151 42.05 37.88 42.05H34.58C31.6486 42.0598 28.7588 41.3562 26.16 40C23.2789 38.4764 20.0691 37.68 16.81 37.68H11.81V34.09C11.81 33.8248 11.7046 33.5705 11.5171 33.3829C11.3296 33.1954 11.0752 33.09 10.81 33.09H4C3.73478 33.09 3.48043 33.1954 3.29289 33.3829C3.10536 33.5705 3 33.8248 3 34.09V58.59C3 58.8552 3.10536 59.1096 3.29289 59.2971C3.48043 59.4847 3.73478 59.59 4 59.59H10.81C11.0752 59.59 11.3296 59.4847 11.5171 59.2971C11.7046 59.1096 11.81 58.8552 11.81 58.59V56.34C13.6051 56.4225 15.3795 56.7592 17.08 57.34L22.22 59.15C24.8528 60.0847 27.6262 60.5616 30.42 60.56H31.42C34.4138 60.4245 37.3582 59.7469 40.11 58.56L58.54 50.68C59.5309 50.1792 60.2988 49.326 60.6929 48.2881C61.087 47.2501 61.0788 46.1023 60.67 45.07ZM9.81 57.59H5V35.09H9.81V57.59ZM57.73 48.92L39.36 56.76C34.1281 58.9974 28.2471 59.1901 22.88 57.3L17.74 55.48C15.8282 54.8178 13.8311 54.4339 11.81 54.34V39.64H16.81C19.7409 39.6383 22.6278 40.3524 25.22 41.72C28.1032 43.2487 31.3166 44.0486 34.58 44.05H37.88C38.1803 44.05 38.4776 44.1093 38.7548 44.2245C39.0321 44.3397 39.2839 44.5086 39.4958 44.7214C39.7076 44.9341 39.8753 45.1867 39.9893 45.4644C40.1033 45.7422 40.1613 46.0398 40.16 46.34C40.1604 46.6653 40.0899 46.9868 39.9535 47.2821C39.8171 47.5774 39.6179 47.8395 39.37 48.05L37.69 48.64H26.78C26.5148 48.64 26.2604 48.7454 26.0729 48.9329C25.8854 49.1205 25.78 49.3748 25.78 49.64C25.78 49.9052 25.8854 50.1596 26.0729 50.3471C26.2604 50.5347 26.5148 50.64 26.78 50.64H37.88C38.17 50.64 55.55 44.47 55.55 44.47C56.1647 44.2156 56.8553 44.2156 57.47 44.47C57.901 44.6497 58.2727 44.9469 58.5428 45.3277C58.813 45.7085 58.9706 46.1576 58.9977 46.6237C59.0248 47.0898 58.9203 47.5542 58.6962 47.9638C58.472 48.3733 58.1372 48.7116 57.73 48.94V48.92Z" fill="black" id="id_119"></path>
</svg>