<svg xmlns="http://www.w3.org/2000/svg" xmlns:xlink="http://www.w3.org/1999/xlink" viewBox="0,0,256,256" width="48px" height="48px"><g fill="none" fill-rule="nonzero" stroke="none" stroke-width="1" stroke-linecap="butt" stroke-linejoin="miter" stroke-miterlimit="10" stroke-dasharray="" stroke-dashoffset="0" font-family="none" font-weight="none" font-size="none" text-anchor="none" style="mix-blend-mode: normal"><g transform="scale(5.33333,5.33333)"><path d="M45,35c0,2.209 -1.791,4 -4,4h-34c-2.209,0 -4,-1.791 -4,-4v-22c0,-2.209 1.791,-4 4,-4h34c2.209,0 4,1.791 4,4z" fill="#979ebd"></path><path d="M30,14c-5.52285,0 -10,4.47715 -10,10c0,5.52285 4.47715,10 10,10c5.52285,0 10,-4.47715 10,-10c0,-5.52285 -4.47715,-10 -10,-10z" fill="#ffc107"></path><path d="M22.014,30c-0.464,-0.617 -0.863,-1.284 -1.176,-2h5.325c0.278,-0.636 0.496,-1.304 0.637,-2h-6.598c-0.132,-0.646 -0.202,-1.314 -0.202,-2h7c0,-0.686 -0.07,-1.354 -0.201,-2h-6.598c0.142,-0.696 0.359,-1.364 0.637,-2h5.325c-0.313,-0.716 -0.711,-1.383 -1.176,-2h-2.973c0.437,-0.58 0.93,-1.122 1.481,-1.595c-1.748,-1.496 -4.014,-2.405 -6.495,-2.405c-5.523,0 -10,4.477 -10,10c0,5.523 4.477,10 10,10c3.269,0 6.162,-1.575 7.986,-4z" fill="#ff3d00"></path></g></g></svg>