<?xml version="1.0" encoding="UTF-8" standalone="no"?> <svg xmlns="http://www.w3.org/2000/svg" viewBox="0 0 32 32"><defs><style>.cls-1{fill:#eaeff0;}.cls-2{fill:#fd3730;}.cls-3{fill:#fac100;}.cls-4{fill:#8fa5a5;}.cls-5{fill:#d9e1e2;}</style></defs><title>Shop</title><g id="Shop"><path class="cls-1" d="M5,11V25a2,2,0,0,0,2,2H25a2,2,0,0,0,2-2V11Z"/><path class="cls-2" d="M28.99,11.245a1,1,0,0,1-.53,1.188,6.018,6.018,0,0,1-5.854-.421,6.015,6.015,0,0,1-6.606,0,6.015,6.015,0,0,1-6.606,0,6.018,6.018,0,0,1-5.854.421,1,1,0,0,1-.53-1.188l1.6-5.523A1,1,0,0,1,5.571,5H26.429a1,1,0,0,1,.96.722Z"/><path class="cls-3" d="M16,5v7.01a6.012,6.012,0,0,1-6.61,0L11,5Z"/><path class="cls-3" d="M28.46,12.43a5.851,5.851,0,0,1-2.55.57,5.912,5.912,0,0,1-3.3-.99L21,5h5.43a1,1,0,0,1,.96.72l1.6,5.52A1,1,0,0,1,28.46,12.43Z"/><rect class="cls-4" x="9" y="18" width="5" height="9"/><rect class="cls-5" x="18" y="18" width="5" height="4"/><path d="M29.951,10.967l-1.6-5.524A2.011,2.011,0,0,0,26.429,4H5.571A2.013,2.013,0,0,0,3.649,5.443l-1.6,5.524a1.994,1.994,0,0,0,1.065,2.372A6.715,6.715,0,0,0,4,13.674V25a3,3,0,0,0,3,3H25a3,3,0,0,0,3-3V13.676a7.1,7.1,0,0,0,.886-.337A1.994,1.994,0,0,0,29.951,10.967Zm-8.487.538A5.028,5.028,0,0,1,17,11.426V6h3.2ZM11.8,6H15v5.426a5.028,5.028,0,0,1-4.464.079ZM5.571,6H9.745L8.517,11.361a4.98,4.98,0,0,1-4.546.162ZM10,26V19h3v7Zm16-1a1,1,0,0,1-1,1H15V18a1,1,0,0,0-1-1H9a1,1,0,0,0-1,1v8H7a1,1,0,0,1-1-1V13.981a7.054,7.054,0,0,0,3.394-.807,7.113,7.113,0,0,0,6.606,0,7.116,7.116,0,0,0,6.606,0,7.006,7.006,0,0,0,3.3.826c.03,0,.06,0,.09-.005ZM23.483,11.361,22.255,6h4.174l1.6,5.523,0,.005A5.02,5.02,0,0,1,23.483,11.361Z"/><path d="M23,17H18a1,1,0,0,0-1,1v4a1,1,0,0,0,1,1h5a1,1,0,0,0,1-1V18A1,1,0,0,0,23,17Zm-1,4H19V19h3Z"/></g></svg>